<?xml version="1.0" encoding="utf-8"?>
<!-- Generator: Adobe Illustrator 26.1.0, SVG Export Plug-In . SVG Version: 6.00 Build 0)  -->
<svg version="1.1" id="Layer_1" xmlns="http://www.w3.org/2000/svg" xmlns:xlink="http://www.w3.org/1999/xlink" x="0px" y="0px"
	 viewBox="0 0 515.6 93.6" style="enable-background:new 0 0 515.6 93.6;" xml:space="preserve">
<style type="text/css">
	.st0{fill:#F68B1F;}
	.st1{fill:#1E1E1E;}
</style>
<g>
	<path class="st0" d="M26,0c-5,0.4-9.7,0.7-14,1C7.8,1.3,4,1.5,0,1.6v4.2h7v82H0v4h35v-4h-9V0z"/>
	<path class="st0" d="M123.8,44.3c-4.8-5.5-10.9-8.2-18.3-8.2c-3.8,0-7.1,0.9-10.1,2.6c-3,1.7-5.4,4.3-7.4,7.8V0
		c-5,0.4-9.3,0.7-13.7,1C69.9,1.3,66,1.5,61,1.6v4.2h8v82L42.2,53.6l14.2-11.8H67v-4H38v4h12.7L26.5,62.1l19.7,25.7H39v4h22.3h13.2
		H88v-8.5c2,3.5,4.5,6.1,7.4,7.8c2.9,1.7,6.3,2.5,10.2,2.5c7.2,0,13.3-2.7,18.2-8.2c4.9-5.5,7.3-12.3,7.3-20.4
		C131.1,56.6,128.7,49.7,123.8,44.3z M110,80.9c0,3.3-0.6,5.6-1.7,6.8c-1.1,1.2-3.1,1.8-6,1.8c-4.3,0-7.7-1.8-10.4-5.4
		c-2.7-3.6-3.9-8.3-3.9-14.1V59.7c0-6,1.3-10.7,4.1-14.3c2.8-3.5,6.5-5.3,11.2-5.3c2.4,0,4.1,0.7,5.2,2c1,1.4,1.5,3.7,1.5,7
		L110,80.9L110,80.9z"/>
</g>
<g>
	<path class="st1" d="M169.3,47.5h2.6v31.2h0.1l14-17.1h3l-9.2,11.2l10.7,17.1h-2.9l-9.4-15.1l-6.4,7.4v7.7h-2.6V47.5z"/>
	<path class="st1" d="M205.2,60.9c6.7,0,10.8,4.8,10.8,13.1c0,0.7,0,1.4-0.1,2.1h-20.4c0.1,7.1,4.3,12.3,10.7,12.3
		c3.1,0,5.5-1,7.6-2.5l1.1,2c-2.2,1.4-4.8,2.8-8.9,2.8c-7.2,0-13.1-5.5-13.1-14.8S198.9,60.9,205.2,60.9z M213.6,74
		c0-7.2-3.2-11-8.3-11c-4.8,0-9.1,4.2-9.7,11H213.6z"/>
	<path class="st1" d="M219.3,61.6h2.8l6.4,17.7c0.9,2.7,1.9,5.5,2.8,8.1h0.2c0.9-2.6,1.9-5.4,2.9-8.1l6.4-17.7h2.6L233,89.8h-3.1
		L219.3,61.6z"/>
	<path class="st1" d="M248.4,52.4c0-1.5,1.1-2.4,2.4-2.4c1.3,0,2.4,0.9,2.4,2.4c0,1.4-1.1,2.3-2.4,2.3
		C249.5,54.7,248.4,53.8,248.4,52.4z M249.4,61.6h2.6v28.3h-2.6V61.6z"/>
	<path class="st1" d="M260.8,61.6h2.2l0.2,4.4h0.2c2.9-2.9,5.8-5.1,9.7-5.1c5.8,0,8.5,3.5,8.5,10.8v18.1h-2.6V72
		c0-6-1.9-8.8-6.5-8.8c-3.4,0-5.8,1.8-9.2,5.3v21.3h-2.6L260.8,61.6L260.8,61.6z"/>
	<path class="st1" d="M290.5,48.5h8.7v10.1l-0.2,4.5c2.2-2,5-3.2,7.7-3.2c7.1,0,11.5,5.8,11.5,14.8c0,10.1-6,15.8-12.3,15.8
		c-2.6,0-5.3-1.3-7.6-3.8H298l-0.7,3.1h-6.8L290.5,48.5L290.5,48.5z M303.8,83.5c3,0,5.4-2.6,5.4-8.6c0-5.2-1.6-7.9-5.1-7.9
		c-1.8,0-3.4,0.8-5,2.7v12C300.7,83,302.4,83.5,303.8,83.5z"/>
	<path class="st1" d="M336.3,59.9c8.3,0,12.4,6.1,12.4,14c0,1.5-0.2,2.9-0.4,3.7h-17.5c0.8,4.4,3.7,6.4,7.6,6.4
		c2.2,0,4.2-0.6,6.3-1.9l2.9,5.2c-3,2.1-6.9,3.3-10.4,3.3c-8.4,0-14.8-5.7-14.8-15.3C322.5,65.7,329.3,59.9,336.3,59.9z M341.3,72.2
		c0-3.4-1.4-5.7-4.9-5.7c-2.7,0-5.1,1.8-5.7,5.7H341.3z"/>
	<path class="st1" d="M354.6,60.6h7.1l0.6,5.1h0.2c2.1-3.9,5.3-5.8,8.3-5.8c1.6,0,2.6,0.2,3.5,0.6l-1.4,7.5
		c-1.1-0.3-1.9-0.5-3.2-0.5c-2.2,0-4.9,1.4-6.4,5.4v17h-8.7L354.6,60.6L354.6,60.6z"/>
	<path class="st1" d="M389.1,59.9c7.4,0,14.2,5.6,14.2,15.3s-6.8,15.3-14.2,15.3c-7.4,0-14.2-5.6-14.2-15.3S381.7,59.9,389.1,59.9z
		 M389.1,83.5c3.5,0,5.4-3.2,5.4-8.3s-1.8-8.3-5.4-8.3c-3.6,0-5.4,3.2-5.4,8.3C383.7,80.3,385.5,83.5,389.1,83.5z"/>
	<path class="st1" d="M409,60.6h7.1l0.6,3.7h0.2c2.5-2.4,5.4-4.4,9.4-4.4c6.4,0,9.1,4.5,9.1,11.8v18.1h-8.7v-17
		c0-4.2-1.1-5.5-3.6-5.5c-2.2,0-3.5,1-5.4,2.8v19.7H409L409,60.6L409,60.6z"/>
	<path class="st1" d="M441.8,51.8c0-2.6,2.1-4.5,5-4.5c2.9,0,5,1.8,5,4.5c0,2.7-2.1,4.5-5,4.5C443.9,56.3,441.8,54.4,441.8,51.8z
		 M442.5,60.6h8.7v29.2h-8.7V60.6z"/>
	<path class="st1" d="M458.3,48.5h8.7v32.6c0,1.8,0.8,2.4,1.5,2.4c0.4,0,0.6,0,1.1-0.1l1.1,6.4c-0.9,0.4-2.4,0.7-4.4,0.7
		c-6,0-8-3.9-8-9.8L458.3,48.5L458.3,48.5z"/>
	<path class="st1" d="M475,48.5h8.7v32.6c0,1.8,0.8,2.4,1.5,2.4c0.4,0,0.6,0,1.1-0.1l1.1,6.4c-0.9,0.4-2.4,0.7-4.4,0.7
		c-5.9,0-8-3.9-8-9.8L475,48.5L475,48.5z"/>
	<path class="st1" d="M506.9,71c-0.2-2.6-1.5-4.2-4.6-4.2c-2.5,0-4.9,1-7.8,2.7l-3.1-5.7c3.7-2.2,7.9-3.8,12.5-3.8
		c7.5,0,11.6,4.2,11.6,13.2v16.7h-7.1l-0.6-3h-0.2c-2.5,2.2-5.2,3.7-8.5,3.7c-5.3,0-8.7-3.9-8.7-8.8C490.5,75.6,495.4,72.2,506.9,71
		z M502.1,83.8c2,0,3.3-0.9,4.8-2.5v-5.1c-6.2,0.8-8.2,2.6-8.2,4.8C498.7,82.9,500,83.8,502.1,83.8z"/>
</g>
</svg>
